<?xml version="1.0" encoding="UTF-8" standalone="no"?><!DOCTYPE svg PUBLIC "-//W3C//DTD SVG 1.1//EN" "http://www.w3.org/Graphics/SVG/1.1/DTD/svg11.dtd"><svg width="100%" height="100%" viewBox="0 0 37 37" version="1.1" xmlns="http://www.w3.org/2000/svg" xmlns:xlink="http://www.w3.org/1999/xlink" xml:space="preserve" xmlns:serif="http://www.serif.com/" style="fill-rule:evenodd;clip-rule:evenodd;stroke-linejoin:round;stroke-miterlimit:2;"><g><path d="M30.224,3.948l-1.098,0l0,-1.198c0,-1.517 -1.197,-2.75 -2.67,-2.75c-1.474,0 -2.67,1.233 -2.67,2.75l0,1.197l-2.74,0l0,-1.197c0,-1.517 -1.197,-2.75 -2.67,-2.75c-1.473,0 -2.67,1.233 -2.67,2.75l0,1.197l-2.74,0l0,-1.197c0,-1.517 -1.197,-2.75 -2.67,-2.75c-1.473,0 -2.67,1.233 -2.67,2.75l0,1.197l-1.402,0c-2.343,0 -4.25,1.907 -4.25,4.25l0,24c0,2.343 1.907,4.25 4.25,4.25l24,0c2.344,0 4.25,-1.907 4.25,-4.25l0,-24c0,-2.342 -1.907,-4.249 -4.25,-4.249Zm-4.938,-1.198c0,-0.689 0.525,-1.25 1.17,-1.25c0.646,0 1.17,0.561 1.17,1.25l0,4.896c0,0.689 -0.524,1.25 -1.17,1.25c-0.645,0 -1.17,-0.561 -1.17,-1.25l0,-4.896Zm-8.08,0c0,-0.689 0.525,-1.25 1.17,-1.25c0.645,0 1.17,0.561 1.17,1.25l0,4.896c0,0.689 -0.525,1.25 -1.17,1.25c-0.645,0 -1.17,-0.561 -1.17,-1.25l0,-4.896Zm-8.081,0c0,-0.689 0.525,-1.25 1.17,-1.25c0.645,0 1.17,0.561 1.17,1.25l0,4.896c0,0.689 -0.525,1.25 -1.17,1.25c-0.645,0 -1.17,-0.561 -1.17,-1.25l0,-4.896Zm22.849,29.448c0,0.965 -0.785,1.75 -1.75,1.75l-24,0c-0.965,0 -1.75,-0.785 -1.75,-1.75l0,-22l27.5,0l0,22Z" style="fill:#ff5e13;fill-rule:nonzero;"/><rect x="6.724" y="14.626" width="4.595" height="4.089" style="fill:#ff5e13;"/><rect x="12.857" y="14.626" width="4.596" height="4.089" style="fill:#ff5e13;"/><rect x="18.995" y="14.626" width="4.595" height="4.089" style="fill:#ff5e13;"/><rect x="25.128" y="14.626" width="4.596" height="4.089" style="fill:#ff5e13;"/><rect x="6.724" y="20.084" width="4.595" height="4.086" style="fill:#ff5e13;"/><rect x="12.857" y="20.084" width="4.596" height="4.086" style="fill:#ff5e13;"/><rect x="18.995" y="20.084" width="4.595" height="4.086" style="fill:#ff5e13;"/><rect x="25.128" y="20.084" width="4.596" height="4.086" style="fill:#ff5e13;"/><rect x="6.724" y="25.54" width="4.595" height="4.086" style="fill:#ff5e13;"/><rect x="12.857" y="25.54" width="4.596" height="4.086" style="fill:#ff5e13;"/><rect x="18.995" y="25.54" width="4.595" height="4.086" style="fill:#ff5e13;"/><rect x="25.128" y="25.54" width="4.596" height="4.086" style="fill:#ff5e13;"/></g></svg>