<?xml version="1.0" standalone="no"?>
<!DOCTYPE svg PUBLIC "-//W3C//DTD SVG 20010904//EN"
 "http://www.w3.org/TR/2001/REC-SVG-20010904/DTD/svg10.dtd">
<svg version="1.0" xmlns="http://www.w3.org/2000/svg"
 width="956.000000pt" height="956.000000pt" viewBox="0 0 956.000000 956.000000"
 preserveAspectRatio="xMidYMid meet">
<metadata>
Created by potrace 1.11, written by Peter Selinger 2001-2013
</metadata>
<g transform="translate(0.000000,956.000000) scale(0.100000,-0.100000)"
fill="#000000" stroke="none">
<path d="M4667 9284 c-1 -1 -67 -4 -147 -8 -80 -3 -154 -8 -165 -10 -11 -2
-56 -7 -100 -11 -44 -4 -82 -8 -85 -10 -3 -1 -32 -6 -65 -9 -346 -38 -940
-205 -1283 -362 -29 -13 -55 -24 -58 -24 -11 0 -294 -145 -404 -208 -559 -316
-1092 -796 -1471 -1324 -388 -540 -662 -1199 -765 -1837 -3 -18 -7 -41 -9 -50
-1 -9 -8 -56 -14 -106 -6 -49 -15 -121 -20 -160 -10 -75 -7 -761 4 -835 101
-726 277 -1247 608 -1800 87 -147 311 -463 372 -526 5 -6 26 -30 45 -54 122
-151 389 -416 569 -565 523 -435 1133 -755 1769 -931 335 -92 650 -149 937
-169 50 -4 106 -8 125 -11 44 -5 521 -5 575 1 22 2 76 6 120 9 73 6 190 18
290 32 886 118 1773 521 2480 1127 141 121 442 435 566 589 244 305 463 660
598 973 12 28 26 59 31 70 94 204 236 671 274 900 3 17 12 71 20 121 9 50 19
113 22 140 3 27 9 81 14 119 11 88 10 804 0 853 -5 20 -11 64 -15 97 -24 226
-103 579 -184 825 -216 653 -595 1264 -1092 1759 -100 99 -228 218 -300 276
-424 349 -831 589 -1319 780 -477 186 -975 296 -1497 331 -92 6 -421 12 -426
8z"/>
</g>
</svg>
